<svg width="51" height="51" viewBox="0 0 51 51" fill="none" xmlns="http://www.w3.org/2000/svg">
<g clip-path="url(#clip0_1002_32274)">
<path d="M28.2943 50.849H22.0443C20.5859 50.849 18.9193 49.599 18.9193 47.099V42.724C18.9193 40.6406 17.8776 38.7656 16.2109 37.3073C12.4609 34.3906 10.5859 30.224 10.5859 25.6406C10.7943 17.724 17.2526 11.474 24.9609 11.2656C28.9193 11.2656 32.6693 12.724 35.3776 15.4323C38.0859 18.1406 39.7526 21.8906 39.7526 25.849C39.7526 30.224 37.8776 34.3906 34.3359 37.099C32.4609 38.5573 31.4193 40.849 31.4193 42.9323V47.724C31.4193 49.3906 29.9609 50.849 28.2943 50.849ZM25.1693 13.349C18.5026 13.349 12.8776 18.974 12.6693 25.6406C12.6693 29.599 14.3359 33.349 17.4609 35.6406C19.7526 37.5156 21.0026 40.0156 21.0026 42.724V47.099C21.0026 47.5156 21.0026 48.7656 22.0443 48.7656H28.2943C28.9193 48.7656 29.3359 48.349 29.3359 47.724V42.9323C29.3359 40.224 30.7943 37.3073 33.0859 35.4323C36.0026 33.1406 37.6693 29.599 37.6693 25.849C37.6693 22.5156 36.4193 19.3906 33.9193 16.8906C31.6276 14.599 28.5026 13.349 25.1693 13.349Z" fill="#0CBD68"/>
<path d="M30.3763 44.5989H19.9596C19.3346 44.5989 18.918 44.1823 18.918 43.5573C18.918 42.9323 19.3346 42.5156 19.9596 42.5156H30.3763C31.0013 42.5156 31.418 42.9323 31.418 43.5573C31.418 44.1823 31.0013 44.5989 30.3763 44.5989Z" fill="#0CBD68"/>
<path d="M25.1667 7.10156C24.5417 7.10156 24.125 6.6849 24.125 6.0599V1.89323C24.125 1.26823 24.5417 0.851562 25.1667 0.851562C25.7917 0.851562 26.2083 1.26823 26.2083 1.89323V6.0599C26.2083 6.6849 25.7917 7.10156 25.1667 7.10156Z" fill="#0CBD68"/>
<path d="M39.1263 12.9349C38.918 12.9349 38.5013 12.9349 38.293 12.7266C37.8763 12.3099 37.8763 11.6849 38.293 11.2682L41.2096 8.35156C41.6263 7.9349 42.2513 7.9349 42.668 8.35156C43.0846 8.76823 43.0846 9.39323 42.668 9.8099L39.7513 12.7266C39.7513 12.7266 39.3346 12.9349 39.1263 12.9349Z" fill="#0CBD68"/>
<path d="M49.1263 26.8958H44.9596C44.3346 26.8958 43.918 26.4792 43.918 25.8542C43.918 25.2292 44.3346 24.8125 44.9596 24.8125H49.1263C49.7513 24.8125 50.168 25.2292 50.168 25.8542C50.168 26.4792 49.7513 26.8958 49.1263 26.8958Z" fill="#0CBD68"/>
<path d="M42.043 43.7708C41.8346 43.7708 41.418 43.7708 41.2096 43.5625L38.293 40.6458C37.8763 40.2292 37.8763 39.6042 38.293 39.1875C38.7096 38.7708 39.3346 38.7708 39.7513 39.1875L42.668 42.1042C43.0846 42.5208 43.0846 43.1458 42.668 43.5625C42.668 43.7708 42.4596 43.7708 42.043 43.7708Z" fill="#0CBD68"/>
<path d="M8.29427 43.7708C8.08594 43.7708 7.66927 43.7708 7.46094 43.5625C7.04427 43.1458 7.04427 42.5208 7.46094 42.1042L10.3776 39.1875C10.7943 38.7708 11.4193 38.7708 11.8359 39.1875C12.2526 39.6042 12.2526 40.2292 11.8359 40.6458L8.91927 43.5625C8.71094 43.7708 8.5026 43.7708 8.29427 43.7708Z" fill="#0CBD68"/>
<path d="M5.3763 26.8958H1.20964C0.584635 26.8958 0.167969 26.4792 0.167969 25.8542C0.167969 25.2292 0.584635 24.8125 1.20964 24.8125H5.3763C6.0013 24.8125 6.41797 25.2292 6.41797 25.8542C6.41797 26.4792 6.0013 26.8958 5.3763 26.8958Z" fill="#0CBD68"/>
<path d="M11.2109 12.9323C11.0026 12.9323 10.5859 12.9323 10.3776 12.724L7.46094 9.59896C7.04427 9.18229 7.04427 8.55729 7.46094 8.14062C7.8776 7.72396 8.5026 7.72396 8.91927 8.14062L11.8359 11.0573C12.2526 11.474 12.2526 12.099 11.8359 12.5156C11.6276 12.724 11.4193 12.9323 11.2109 12.9323Z" fill="#0CBD68"/>
<path d="M33.5 26.8932C32.875 26.8932 32.4583 26.4765 32.4583 25.8516C32.4583 21.8932 29.125 18.5599 25.1667 18.5599C24.5417 18.5599 24.125 18.1432 24.125 17.5182C24.125 16.8932 24.5417 16.4766 25.1667 16.4766C30.375 16.4766 34.5417 20.6432 34.5417 25.8516C34.5417 26.4765 34.125 26.8932 33.5 26.8932Z" fill="#0CBD68"/>
</g>
<defs>
<clipPath id="clip0_1002_32274">
<rect width="50" height="50" fill="white" transform="translate(0.167969 0.851562)"/>
</clipPath>
</defs>
</svg>
