<svg width="57" height="56" viewBox="0 0 57 56" fill="none" xmlns="http://www.w3.org/2000/svg">
<g clip-path="url(#clip0_1002_32214)">
<path d="M46.5995 0.851563H21.9902C19.3314 0.851563 17.1097 2.72456 16.6213 5.19773C11.8923 5.67049 8.31836 9.48943 8.31836 14.2792V22.336C8.31836 25.0474 10.3746 27.2959 13.036 27.6564C13.9937 32.0211 16.8859 35.6873 20.7841 37.7434C16.1896 38.5578 12.6932 42.5143 12.6932 47.2579V54.7774C12.6932 55.3705 13.1829 55.8516 13.787 55.8516H42.2244C42.8285 55.8516 43.3181 55.3705 43.3181 54.7774V47.2579C43.3181 42.5142 39.8216 38.5577 35.227 37.7434C40.039 35.2053 43.3181 30.2138 43.3181 24.4843V12.3895C45.9811 10.3221 47.6931 7.12208 47.6931 3.5371V1.92578C47.6932 1.3326 47.2035 0.851562 46.5995 0.851562V0.851563ZM25.8183 39.3703C27.2414 39.5738 28.7702 39.5738 30.1933 39.3702V40.5975C30.083 43.4445 25.9276 43.4423 25.8183 40.5975V39.3703ZM41.1307 47.2579V53.7031H37.8495V51.0176C37.7957 49.5938 35.7154 49.5949 35.662 51.0176V53.7031H20.3496V51.0176C20.2958 49.5938 18.2153 49.5949 18.1621 51.0176V53.7031H14.8808V47.2579C14.8808 43.1116 18.3154 39.7383 22.5371 39.7383H23.6308V40.5975C23.8515 46.2915 32.1621 46.2872 32.3808 40.5975V39.7383H33.4745C37.6962 39.7383 41.1307 43.1116 41.1307 47.2579ZM41.1307 24.4843C40.4688 41.5662 15.5366 41.5532 14.8808 24.4843V19.0053C17.0204 18.577 18.7099 16.9176 19.146 14.8164H36.2089C37.969 14.8164 39.6382 14.4252 41.1307 13.7272V24.4843ZM45.5057 3.5371C45.5057 8.57184 41.3353 12.6679 36.2089 12.6679H18.1621C17.558 12.6679 17.0683 13.149 17.0683 13.7421C17.0683 15.5191 15.5964 16.9648 13.7871 16.9648C13.183 16.9648 12.6933 17.4458 12.6933 18.039V24.4843C12.6933 24.7864 12.7024 25.086 12.7205 25.3837C11.4332 24.9479 10.5059 23.7463 10.5059 22.336V14.2792C10.5059 10.3639 13.6286 7.29685 17.6152 7.29685C18.2193 7.29685 18.7089 6.81582 18.7089 6.22264C18.7089 4.44567 20.1809 2.99999 21.9902 2.99999H45.5057V3.5371Z" fill="#0CBD68"/>
<path d="M23.4629 24.5506C23.8901 24.9702 24.5826 24.9701 25.0097 24.5505C25.4368 24.1311 25.4368 23.451 25.0097 23.0314C23.5949 21.5832 21.0497 21.5833 19.6348 23.0314C19.2077 23.4509 19.2076 24.131 19.6348 24.5505C20.0619 24.9701 20.7545 24.9701 21.1816 24.5506C21.7822 23.9359 22.8624 23.9359 23.4629 24.5506Z" fill="#0CBD68"/>
<path d="M31.002 23.0314C30.5749 23.4509 30.5748 24.131 31.002 24.5505C31.4291 24.9701 32.1217 24.9701 32.5488 24.5506C33.1494 23.936 34.2297 23.936 34.8301 24.5506C35.2572 24.9702 35.9498 24.9701 36.3769 24.5505C36.804 24.1311 36.804 23.451 36.3769 23.0314C34.9619 21.5832 32.4169 21.5833 31.002 23.0314Z" fill="#0CBD68"/>
<path d="M33.4746 27.1719H22.5371C21.933 27.1719 21.4434 27.6529 21.4434 28.2461C21.7737 36.7857 34.2401 36.7816 34.5684 28.246C34.5684 27.6529 34.0787 27.1719 33.4746 27.1719ZM28.0059 32.5429C25.971 32.5429 24.2562 31.1714 23.7693 29.3203H32.2425C31.7556 31.1714 30.0408 32.5429 28.0059 32.5429Z" fill="#0CBD68"/>
</g>
<defs>
<clipPath id="clip0_1002_32214">
<rect width="56" height="55" fill="white" transform="translate(0.00585938 0.851562)"/>
</clipPath>
</defs>
</svg>
