<svg width="53" height="53" viewBox="0 0 53 53" fill="none" xmlns="http://www.w3.org/2000/svg">
<g clip-path="url(#clip0_1002_32185)">
<path d="M35.1484 0.851562C34.5876 0.851562 34.1328 1.30636 34.1328 1.86719V6.53906C34.1328 7.09989 34.5876 7.55469 35.1484 7.55469C35.7093 7.55469 36.1641 7.09989 36.1641 6.53906V1.86719C36.1641 1.30636 35.7093 0.851562 35.1484 0.851562Z" fill="#0CBD68"/>
<path d="M11.7891 32.5391C11.2284 32.5391 10.7734 32.9941 10.7734 33.5547C10.7734 34.1153 11.2284 34.5703 11.7891 34.5703C12.3497 34.5703 12.8047 34.1153 12.8047 33.5547C12.8047 32.9941 12.3497 32.5391 11.7891 32.5391Z" fill="#0CBD68"/>
<path d="M49.3672 30.5078C49.3672 28.2677 47.5448 26.4453 45.3047 26.4453H37.7228C38.8966 23.4388 39.3717 19.8999 39.2801 16.7497C39.2626 16.1486 39.2396 15.801 39.2084 15.5821C39.1559 13.3876 37.354 11.6172 35.1484 11.6172C32.9084 11.6172 31.0859 13.4396 31.0859 15.6797V16.6953C31.0859 23.1187 22.8376 26.7278 16.6129 28.2754C16.1422 27.1994 15.0679 26.4453 13.8203 26.4453H3.66406C3.10323 26.4453 2.64844 26.9001 2.64844 27.4609V51.8359C2.64844 52.3968 3.10323 52.8516 3.66406 52.8516H13.8203C15.0596 52.8516 16.1277 52.1074 16.6032 51.0428C17.1187 51.1751 17.5971 51.3 18.0388 51.4154C21.5849 52.3415 23.5382 52.8516 28.2889 52.8516H39.2109C41.451 52.8516 43.2734 51.0291 43.2734 48.7891C43.2734 47.9538 43.0198 47.1769 42.5859 46.5305C44.1548 45.9818 45.3047 44.4827 45.3047 42.6953C45.3047 41.8631 45.0573 41.0836 44.6246 40.4343C46.1867 39.8847 47.3359 38.3891 47.3359 36.6016C47.3359 35.7663 47.0823 34.9894 46.6484 34.343C48.2173 33.7943 49.3672 32.2952 49.3672 30.5078ZM14.8359 49.8047C14.8359 50.3647 14.3803 50.8203 13.8203 50.8203H4.67969V28.4766H13.8203C14.3803 28.4766 14.8359 28.9322 14.8359 29.4922V49.8047ZM45.3047 32.5391C43.1263 32.5391 42.607 32.5391 40.2266 32.5391C39.6657 32.5391 39.2109 32.9939 39.2109 33.5547C39.2109 34.1155 39.6657 34.5703 40.2266 34.5703H43.2734C44.3935 34.5703 45.3047 35.4815 45.3047 36.6016C45.3047 37.7234 44.3953 38.6328 43.2734 38.6328H38.1953C37.6345 38.6328 37.1797 39.0876 37.1797 39.6484C37.1797 40.2093 37.6345 40.6641 38.1953 40.6641H41.2422C42.3489 40.6641 43.2734 41.5482 43.2734 42.6953C43.2734 43.8172 42.364 44.7266 41.2422 44.7266C39.0638 44.7266 38.5445 44.7266 36.1641 44.7266C35.6032 44.7266 35.1484 45.1814 35.1484 45.7422C35.1484 46.303 35.6032 46.7578 36.1641 46.7578H39.2109C40.331 46.7578 41.2422 47.669 41.2422 48.7891C41.2422 49.9091 40.331 50.8203 39.2109 50.8203H28.2889C23.7991 50.8203 22.0456 50.3624 18.5521 49.45C18.0403 49.3164 17.479 49.1698 16.8672 49.0138V30.3072C24.2171 28.5565 33.1172 24.2831 33.1172 16.6953V15.6797C33.1172 14.5597 34.0284 13.6484 35.1484 13.6484C36.2664 13.6484 37.1776 14.5582 37.1797 15.6765V15.6797C37.1797 16.1211 37.7306 21.5381 35.5216 26.4453H32.1016C31.5407 26.4453 31.0859 26.9001 31.0859 27.4609C31.0859 28.0218 31.5407 28.4766 32.1016 28.4766C32.8108 28.4766 44.1471 28.4766 45.3047 28.4766C46.4247 28.4766 47.3359 29.3878 47.3359 30.5078C47.3359 31.6297 46.4265 32.5391 45.3047 32.5391Z" fill="#0CBD68"/>
<path d="M11.7891 36.6016C11.2282 36.6016 10.7734 37.0564 10.7734 37.6172V45.7422C10.7734 46.303 11.2282 46.7578 11.7891 46.7578C12.3499 46.7578 12.8047 46.303 12.8047 45.7422V37.6172C12.8047 37.0564 12.3499 36.6016 11.7891 36.6016Z" fill="#0CBD68"/>
<path d="M27.0234 13.6484H22.9609C22.4001 13.6484 21.9453 14.1032 21.9453 14.6641C21.9453 15.2249 22.4001 15.6797 22.9609 15.6797H27.0234C27.5843 15.6797 28.0391 15.2249 28.0391 14.6641C28.0391 14.1032 27.5843 13.6484 27.0234 13.6484Z" fill="#0CBD68"/>
<path d="M47.3359 13.6484H43.2734C42.7126 13.6484 42.2578 14.1032 42.2578 14.6641C42.2578 15.2249 42.7126 15.6797 43.2734 15.6797H47.3359C47.8968 15.6797 48.3516 15.2249 48.3516 14.6641C48.3516 14.1032 47.8968 13.6484 47.3359 13.6484Z" fill="#0CBD68"/>
<path d="M44.4849 5.32863C44.0882 4.93212 43.4453 4.93212 43.0485 5.32863L40.1764 8.20071C39.7798 8.59731 39.7798 9.24041 40.1764 9.63711C40.5732 10.0337 41.216 10.0336 41.6128 9.63711L44.4849 6.76502C44.8815 6.36842 44.8815 5.72533 44.4849 5.32863Z" fill="#0CBD68"/>
<path d="M30.1216 8.20071L27.2495 5.32863C26.8528 4.93212 26.2099 4.93212 25.8131 5.32863C25.4165 5.72523 25.4165 6.36832 25.8131 6.76502L28.6852 9.63711C29.0821 10.0337 29.7249 10.0336 30.1216 9.63711C30.5182 9.24051 30.5182 8.59741 30.1216 8.20071Z" fill="#0CBD68"/>
</g>
<defs>
<clipPath id="clip0_1002_32185">
<rect width="52" height="52" fill="white" transform="translate(0.0078125 0.851562)"/>
</clipPath>
</defs>
</svg>
