<svg width="63" height="62" viewBox="0 0 63 62" fill="none" xmlns="http://www.w3.org/2000/svg">
<g clip-path="url(#clip0_1002_32262)">
<path d="M62.0059 31.3585C62.0059 19.5937 51.3581 9.50511 36.6879 7.37023C36.0263 7.27468 35.4082 7.72431 35.3101 8.37649C35.2122 9.02866 35.67 9.63557 36.3329 9.73207C49.8028 11.6923 59.5793 20.7876 59.5793 31.3586C59.5793 34.7724 58.5873 38.0471 56.6311 41.0917C56.5083 41.2826 56.4433 41.5039 56.4433 41.7297L56.4454 50.5405L51.3914 47.6717C50.9821 47.4395 50.4731 47.462 50.0868 47.7295C44.8355 51.3654 38.0591 53.3677 31.006 53.3677C15.2505 53.3677 2.43258 43.4944 2.43258 31.3586C2.43258 20.7729 12.2253 11.6754 25.7176 9.72647C26.3807 9.6308 26.8391 9.02437 26.7418 8.37208C26.6445 7.71967 26.0273 7.2686 25.3652 7.36439C10.6708 9.48664 0.00585938 19.5776 0.00585938 31.3585C0.00585938 37.9286 3.26764 44.0877 9.19034 48.7013C15.0297 53.2498 22.7773 55.755 31.0059 55.755C38.2715 55.755 45.2809 53.7571 50.8402 50.1149L57.0529 53.6416C57.4282 53.8545 57.8907 53.8544 58.2662 53.6412C58.6415 53.4277 58.8727 53.0336 58.8726 52.6072L58.8699 42.0702C60.951 38.7215 62.0059 35.1194 62.0059 31.3585Z" fill="#0CBD68"/>
<path d="M10.4575 23.3281C9.78749 23.3281 9.24414 23.8626 9.24414 24.5219V36.3882C9.24414 36.9697 9.67003 37.4666 10.2525 37.5648C10.3387 37.5794 13.322 37.5724 14.6912 37.5648C15.3613 37.5612 15.9014 37.0408 15.8978 36.3815C15.894 35.7245 15.3515 35.1944 14.6845 35.1944C14.6822 35.1944 14.6799 35.1944 14.6776 35.1944C13.6235 35.2003 12.488 35.2042 11.6707 35.2044V24.5219C11.6709 23.8627 11.1275 23.3281 10.4575 23.3281Z" fill="#0CBD68"/>
<path d="M34.4831 37.5648C34.4831 37.5648 37.5526 37.5723 38.9218 37.5648C39.5919 37.5611 40.132 37.0407 40.1283 36.3815C40.1246 35.7245 39.5821 35.1944 38.9151 35.1944C38.9128 35.1944 38.9105 35.1944 38.9082 35.1944C37.8541 35.2002 36.7186 35.2042 35.9013 35.2044V24.5219C35.9013 23.8627 35.3581 23.3281 34.688 23.3281C34.0178 23.3281 33.4746 23.8626 33.4746 24.5219V36.3882C33.4747 36.9697 33.9006 37.4666 34.4831 37.5648Z" fill="#0CBD68"/>
<path d="M16.5918 30.8349C16.5918 34.7675 19.8435 37.9668 23.8406 37.9668C27.8377 37.9668 31.0894 34.7675 31.0894 30.8349C31.0894 26.9024 27.8377 23.7031 23.8406 23.7031C19.8435 23.7031 16.5918 26.9024 16.5918 30.8349ZM28.6628 30.8349C28.6628 33.451 26.4996 35.5793 23.8406 35.5793C21.1816 35.5793 19.0184 33.451 19.0184 30.8349C19.0184 28.2189 21.1816 26.0906 23.8406 26.0906C26.4996 26.0906 28.6628 28.2189 28.6628 30.8349Z" fill="#0CBD68"/>
<path d="M51.4879 21.9125C51.4879 21.2533 50.9447 20.7188 50.2745 20.7188H45.2817C44.6117 20.7188 44.0684 21.2532 44.0684 21.9125V32.072C44.0684 32.7312 44.6116 33.2658 45.2817 33.2658H50.2745C50.9445 33.2658 51.4879 32.7313 51.4879 32.072V21.9125ZM49.0613 30.8782H46.4951V23.1062H49.0613V30.8782Z" fill="#0CBD68"/>
<path d="M47.7786 34.8359C45.7716 34.8359 44.1387 36.4424 44.1387 38.4172C44.1387 40.3918 45.7715 41.9984 47.7786 41.9984C49.7858 41.9984 51.4186 40.3919 51.4186 38.4172C51.4185 36.4424 49.7856 34.8359 47.7786 34.8359ZM47.7786 39.6109C47.1097 39.6109 46.5653 39.0753 46.5653 38.4171C46.5653 37.7589 47.1096 37.2233 47.7786 37.2233C48.4475 37.2233 48.992 37.7588 48.992 38.4171C48.9919 39.0753 48.4475 39.6109 47.7786 39.6109Z" fill="#0CBD68"/>
<path d="M30.9158 9.32989C31.5842 9.37587 32.164 8.88001 32.2108 8.22236C32.2575 7.5647 31.7535 6.99426 31.0851 6.94827C30.4167 6.90228 29.8369 7.39814 29.7901 8.0558C29.7434 8.71345 30.2474 9.2839 30.9158 9.32989Z" fill="#0CBD68"/>
</g>
<defs>
<clipPath id="clip0_1002_32262">
<rect width="62" height="61" fill="white" transform="translate(0.00585938 0.851562)"/>
</clipPath>
</defs>
</svg>
