<svg width="64" height="63" viewBox="0 0 64 63" fill="none" xmlns="http://www.w3.org/2000/svg">
<g clip-path="url(#clip0_1002_32180)">
<path d="M21.9237 14.1382C21.9749 14.2483 22.0479 14.3471 22.1384 14.429C22.229 14.5109 22.3352 14.5742 22.4509 14.6151C22.5667 14.656 22.6895 14.6737 22.8123 14.6672C22.9351 14.6607 23.0553 14.6302 23.166 14.5773C23.2766 14.5245 23.3753 14.4504 23.4565 14.3594C23.5376 14.2685 23.5994 14.1625 23.6383 14.0477C23.6772 13.9329 23.6924 13.8116 23.683 13.691C23.6736 13.5703 23.6398 13.4527 23.5836 13.3451L21.258 8.63211C21.151 8.41549 20.9609 8.24958 20.7296 8.17089C20.4982 8.09221 20.2446 8.10718 20.0245 8.21252C19.8044 8.31786 19.6358 8.50494 19.5558 8.7326C19.4759 8.96027 19.4911 9.20986 19.5981 9.42649L21.9237 14.1382ZM31.5041 12.8341C31.7489 12.8341 31.9836 12.7384 32.1567 12.5681C32.3298 12.3977 32.427 12.1667 32.427 11.9259V7.21289C32.427 6.97202 32.3298 6.74102 32.1567 6.57069C31.9836 6.40037 31.7489 6.30469 31.5041 6.30469C31.2594 6.30469 31.0247 6.40037 30.8516 6.57069C30.6785 6.74102 30.5813 6.97202 30.5813 7.21289V11.9259C30.5813 12.1667 30.6785 12.3977 30.8516 12.5681C31.0247 12.7384 31.2594 12.8341 31.5041 12.8341ZM39.8516 14.5584C39.9605 14.6104 40.0786 14.6408 40.1994 14.6478C40.3201 14.6549 40.4411 14.6384 40.5554 14.5994C40.6697 14.5603 40.775 14.4995 40.8654 14.4204C40.9558 14.3413 41.0294 14.2454 41.0821 14.1382L43.4077 9.42649C43.4607 9.31922 43.4917 9.20274 43.499 9.08368C43.5062 8.96463 43.4896 8.84533 43.45 8.7326C43.4104 8.61988 43.3486 8.51593 43.2682 8.42669C43.1878 8.33745 43.0903 8.26468 42.9813 8.21252C42.8724 8.16036 42.754 8.12984 42.633 8.1227C42.512 8.11555 42.3908 8.13193 42.2763 8.17089C42.1617 8.20986 42.0561 8.27064 41.9654 8.34978C41.8747 8.42891 41.8008 8.52485 41.7478 8.63211L39.4222 13.3451C39.3692 13.4525 39.3383 13.5691 39.3313 13.6882C39.3242 13.8074 39.3411 13.9268 39.381 14.0395C39.4209 14.1522 39.483 14.2561 39.5637 14.3451C39.6445 14.4342 39.7423 14.5067 39.8516 14.5584ZM49.8381 17.6488C49.9632 17.7096 50.101 17.7411 50.2405 17.7408C50.4139 17.7411 50.5839 17.6932 50.7308 17.6025C50.8778 17.5119 50.9957 17.3823 51.0711 17.2286L52.3594 14.6202C52.4124 14.5129 52.4434 14.3965 52.4506 14.2774C52.4579 14.1583 52.4412 14.039 52.4017 13.9263C52.3621 13.8136 52.3003 13.7096 52.2199 13.6204C52.1395 13.5312 52.042 13.4584 51.933 13.4062C51.824 13.3541 51.7056 13.3236 51.5847 13.3164C51.4637 13.3093 51.3425 13.3256 51.2279 13.3646C51.1134 13.4036 51.0078 13.4644 50.9171 13.5435C50.8264 13.6226 50.7525 13.7186 50.6995 13.8258L49.4112 16.4354C49.3581 16.5426 49.3271 16.6591 49.3198 16.7782C49.3126 16.8972 49.3292 17.0165 49.3689 17.1292C49.4086 17.2419 49.4704 17.3458 49.5509 17.435C49.6315 17.5241 49.7291 17.5968 49.8381 17.6488ZM52.9389 52.5698L52.9205 52.548L50.3205 49.6417C49.2951 48.4923 47.9989 47.608 46.5455 47.0663C45.0921 46.5245 43.5258 46.3419 41.984 46.5345L34.2235 47.5032C33.3905 47.611 32.5156 46.9898 32.4356 46.1567C32.4057 45.8596 32.4671 45.5605 32.6119 45.2982C32.7567 45.0359 32.9782 44.8224 33.2477 44.6854L40.43 41.124C42.0897 40.2852 43.3765 38.873 44.0436 37.1581C44.7107 35.4433 44.7113 33.5465 44.0451 31.8313L43.5627 30.59C43.2397 29.7599 42.7417 29.0064 42.1015 28.3793C41.4613 27.7522 40.6934 27.2655 39.8484 26.9514C39.0034 26.6373 38.1003 26.5028 37.1987 26.5568C36.2971 26.6109 35.4173 26.8521 34.6172 27.2648C34.2919 27.4336 33.9147 27.4783 33.5579 27.3903C33.2012 27.3022 32.89 27.0876 32.6842 26.7877C32.5691 26.6221 32.4901 26.4348 32.4522 26.2376C32.4143 26.0405 32.4183 25.8377 32.4639 25.6422C32.6276 24.9289 33.3695 24.5814 33.97 24.235C35.9647 23.0833 38.327 22.7127 40.5867 23.1972C42.8464 23.6816 44.838 24.9855 46.1652 26.8495C46.3057 27.0468 46.5201 27.1812 46.7612 27.2229C47.0024 27.2647 47.2505 27.2105 47.451 27.0723C47.6516 26.934 47.7881 26.723 47.8305 26.4857C47.873 26.2484 47.8179 26.0042 47.6774 25.8068C46.6527 24.3718 45.292 23.2005 43.7104 22.392C42.2719 21.654 40.6852 21.2387 39.0643 21.1759C37.4434 21.1131 35.8284 21.4043 34.3355 22.0287C34.2683 21.726 34.3 21.4102 34.4262 21.1264C34.5524 20.8426 34.7666 20.6053 35.0381 20.4484C38.0219 18.7386 41.6826 18.1997 44.7366 19.7546C46.0535 20.4276 47.1863 21.4029 48.0392 22.5979L53.1702 29.8066C53.2397 29.9043 53.3281 29.9876 53.4303 30.0517C53.5325 30.1158 53.6465 30.1595 53.7658 30.1802C53.8852 30.201 54.0075 30.1984 54.1258 30.1726C54.2442 30.1468 54.3562 30.0984 54.4555 30.03C54.5548 29.9616 54.6394 29.8747 54.7045 29.7741C54.7697 29.6735 54.8141 29.5613 54.8352 29.4438C54.8562 29.3264 54.8536 29.206 54.8274 29.0896C54.8012 28.9731 54.752 28.8629 54.6825 28.7652L49.5502 21.5564C48.5267 20.1207 47.1663 18.9493 45.5844 18.1416C41.8561 16.2404 37.6922 16.8096 34.1054 18.8815C33.4252 19.2735 32.9082 19.89 32.646 20.6215C32.3838 21.3531 32.3934 22.1524 32.6731 22.8776C32.2443 23.0943 31.8504 23.3721 31.5041 23.7022C31.16 23.3697 30.7657 23.0915 30.3352 22.8776C30.6149 22.1524 30.6245 21.3531 30.3623 20.6215C30.1001 19.89 29.5831 19.2735 28.9029 18.8815L28.097 18.4141C25.7021 17.0301 22.8654 16.5846 20.1519 17.1665C17.4383 17.7484 15.047 19.3149 13.4544 21.554L0.171484 40.217C0.0405888 40.4144 -0.00719113 40.6542 0.038242 40.8856C0.0836751 41.117 0.218762 41.322 0.414953 41.4572C0.611145 41.5925 0.853071 41.6473 1.0896 41.6102C1.32614 41.5731 1.53875 41.447 1.6825 41.2584L14.9716 22.5954C16.2993 20.7322 18.2909 19.4288 20.5503 18.9444C22.8098 18.46 25.1718 18.8301 27.1667 19.981C27.8644 20.3831 28.8992 21.043 28.6753 22.0263C27.1823 21.4019 25.5674 21.1107 23.9464 21.1735C22.3255 21.2363 20.7388 21.6516 19.3004 22.3896C17.7187 23.1981 16.3581 24.3694 15.3333 25.8044C15.2638 25.9021 15.2144 26.0124 15.1882 26.1289C15.1619 26.2453 15.1592 26.3658 15.1802 26.4833C15.2012 26.6008 15.2456 26.7131 15.3107 26.8137C15.3758 26.9144 15.4604 27.0014 15.5597 27.0698C15.659 27.1383 15.771 27.1869 15.8894 27.2127C16.0078 27.2386 16.1301 27.2412 16.2495 27.2205C16.3689 27.1998 16.483 27.1562 16.5853 27.0921C16.6876 27.028 16.776 26.9448 16.8456 26.847C18.1732 24.9829 20.1654 23.679 22.4257 23.195C24.6859 22.711 27.0485 23.0823 29.0432 24.235L29.8479 24.6988C30.1844 24.893 30.4303 25.2092 30.5329 25.5795C30.6355 25.9499 30.5867 26.3451 30.3969 26.6805C30.2071 27.016 29.8915 27.2649 29.5175 27.3741C29.1435 27.4833 28.7409 27.4441 28.396 27.2648C27.5957 26.8513 26.7155 26.6094 25.8133 26.5549C24.9111 26.5004 24.0074 26.6347 23.1618 26.9489C22.3162 27.2631 21.5478 27.75 20.9072 28.3776C20.2667 29.0052 19.7685 29.7592 19.4455 30.59L18.9644 31.83C18.2981 33.5466 18.2993 35.4448 18.9678 37.1605C19.6364 38.8762 20.9252 40.2885 22.5869 41.1264L29.7544 44.6817C30.0257 44.8178 30.249 45.0313 30.3952 45.2942C30.5414 45.557 30.6037 45.8572 30.5739 46.1554C30.4952 46.9849 29.6141 47.6086 28.786 47.502L24.3674 46.9498C24.2473 46.9348 24.1253 46.9432 24.0085 46.9746C23.8916 47.0059 23.7822 47.0596 23.6865 47.1326C23.5907 47.2056 23.5105 47.2964 23.4504 47.3999C23.3903 47.5034 23.3516 47.6175 23.3363 47.7357C23.321 47.854 23.3296 47.974 23.3614 48.089C23.3933 48.204 23.4479 48.3116 23.522 48.4059C23.5962 48.5001 23.6885 48.579 23.7936 48.6382C23.8988 48.6973 24.0147 48.7355 24.1349 48.7505L28.551 49.3039C29.0914 49.3666 29.6393 49.3053 30.1516 49.1248C30.6639 48.9443 31.1269 48.6496 31.5041 48.2637C31.8812 48.6499 32.3441 48.9449 32.8565 49.1253C33.3689 49.3058 33.9168 49.3669 34.4573 49.3039L42.2178 48.3351C43.4602 48.1806 44.722 48.3281 45.8931 48.7646C47.0641 49.2012 48.1085 49.9135 48.935 50.8393L51.5263 53.7456L58.8907 62.5334C58.9667 62.6286 59.0613 62.7078 59.1689 62.7665C59.2765 62.8252 59.3949 62.8621 59.5172 62.8751C59.6395 62.8881 59.7632 62.8769 59.881 62.8422C59.9989 62.8075 60.1085 62.7499 60.2034 62.6729C60.2983 62.5959 60.3766 62.501 60.4337 62.3937C60.4908 62.2865 60.5255 62.1691 60.5359 62.0485C60.5462 61.9279 60.5319 61.8064 60.4939 61.6913C60.4558 61.5762 60.3948 61.4697 60.3143 61.3781L52.9389 52.5698ZM31.5041 43.7348C31.241 43.4621 30.9332 43.235 30.5936 43.0627L23.4261 39.5074C22.1702 38.8729 21.1964 37.8045 20.6915 36.5071C20.1865 35.2097 20.1858 33.7746 20.6896 32.4767L21.1682 31.2379C21.3982 30.6474 21.7526 30.1116 22.2081 29.6656C22.6636 29.2196 23.2098 28.8735 23.811 28.6501C24.4121 28.4267 25.0545 28.3311 25.6958 28.3695C26.3372 28.4079 26.963 28.5795 27.5322 28.8729C28.1749 29.2055 28.9103 29.3228 29.6269 29.207C30.3434 29.0912 31.0021 28.7486 31.5029 28.2311C32.0038 28.7486 32.6624 29.0912 33.379 29.207C34.0955 29.3228 34.8309 29.2055 35.4736 28.8729C36.0429 28.579 36.669 28.4071 37.3106 28.3685C37.9523 28.3299 38.5949 28.4254 39.1964 28.6488C39.7978 28.8722 40.3443 29.2185 40.8 29.6647C41.2557 30.111 41.6101 30.6471 41.8401 31.2379L42.3212 32.4767C42.8237 33.7728 42.8232 35.2057 42.3197 36.5014C41.8162 37.7971 40.8451 38.8647 39.592 39.5001L32.4098 43.0627C32.0717 43.235 31.7655 43.4623 31.5041 43.7348ZM62.838 40.217L56.6771 31.5612C56.5366 31.3639 56.3222 31.2295 56.081 31.1877C55.8399 31.1459 55.5918 31.2001 55.3912 31.3384C55.1907 31.4767 55.0542 31.6877 55.0117 31.925C54.9693 32.1623 55.0243 32.4065 55.1648 32.6038L61.327 41.2584C61.3946 41.3604 61.4824 41.4479 61.5851 41.5159C61.6878 41.5838 61.8033 41.6307 61.9248 41.6538C62.0463 41.6769 62.1713 41.6757 62.2923 41.6503C62.4133 41.6249 62.5279 41.5759 62.6293 41.506C62.7306 41.4361 62.8167 41.3469 62.8823 41.2437C62.9479 41.1405 62.9917 41.0253 63.0112 40.905C63.0307 40.7848 63.0254 40.6619 62.9957 40.5437C62.9659 40.4255 62.9123 40.3144 62.838 40.217ZM21.0242 46.5296C19.4826 46.3373 17.9166 46.52 16.4634 47.0617C15.0103 47.6035 13.7143 48.4877 12.689 49.6369L10.094 52.548L10.0755 52.5698L2.69641 61.3697C2.61595 61.4612 2.5549 61.5677 2.51686 61.6828C2.47882 61.798 2.46455 61.9194 2.47489 62.04C2.48523 62.1607 2.51997 62.278 2.57707 62.3853C2.63417 62.4925 2.71248 62.5874 2.80738 62.6644C2.90229 62.7414 3.01189 62.799 3.12973 62.8337C3.24757 62.8685 3.37127 62.8797 3.49357 62.8667C3.61587 62.8537 3.73429 62.8167 3.84188 62.758C3.94947 62.6993 4.04405 62.6201 4.12006 62.5249L11.4844 53.7371L14.0758 50.8309C14.9034 49.905 15.949 49.193 17.1212 48.7573C18.2933 48.3215 19.5562 48.1753 20.7991 48.3315C20.9202 48.3484 21.0436 48.3414 21.162 48.311C21.2803 48.2805 21.3914 48.2272 21.4886 48.1541C21.5859 48.081 21.6674 47.9896 21.7284 47.8852C21.7894 47.7809 21.8288 47.6656 21.8441 47.5461C21.8595 47.4266 21.8505 47.3054 21.8178 47.1893C21.785 47.0733 21.7292 46.9648 21.6535 46.8702C21.5777 46.7757 21.4837 46.6968 21.3767 46.6384C21.2697 46.5799 21.152 46.5429 21.0304 46.5296H21.0242ZM11.9397 17.2286C12.015 17.3823 12.133 17.5119 12.2799 17.6025C12.4269 17.6932 12.5968 17.7411 12.7703 17.7408C12.9098 17.7411 13.0475 17.7096 13.1726 17.6488C13.3923 17.5438 13.5606 17.3573 13.6407 17.1302C13.7207 16.9032 13.706 16.6541 13.5996 16.4378L12.3088 13.8258C12.2558 13.7186 12.1819 13.6226 12.0912 13.5435C12.0005 13.4644 11.8949 13.4036 11.7804 13.3646C11.6658 13.3256 11.5446 13.3093 11.4236 13.3164C11.3026 13.3236 11.1843 13.3541 11.0753 13.4062C10.9663 13.4584 10.8688 13.5312 10.7884 13.6204C10.708 13.7096 10.6462 13.8136 10.6066 13.9263C10.5267 14.154 10.5419 14.4036 10.6489 14.6202L11.9397 17.2286Z" fill="#0CBD68"/>
</g>
<defs>
<clipPath id="clip0_1002_32180">
<rect width="63" height="62" fill="white" transform="translate(0.00585938 0.851562)"/>
</clipPath>
</defs>
</svg>
