<svg width="51" height="54" viewBox="0 0 51 54" fill="none" xmlns="http://www.w3.org/2000/svg">
<g clip-path="url(#clip0_1002_32250)">
<path d="M41.9604 31.1369L49.1648 22.5622C49.7724 21.8369 50.0737 20.8795 49.9978 19.9128C49.9234 18.9465 49.4749 18.0558 48.7589 17.453C47.3202 16.2825 45.2685 16.5121 44.0926 17.9757L38.645 24.4585L30.5558 16.8222C29.8688 16.1737 28.8157 16.238 28.2035 16.9662L2.25168 47.8548C1.01739 49.2613 1.03875 51.4458 2.30012 52.8254C2.92147 53.4832 3.76403 53.8515 4.64208 53.8491H4.75155C5.66468 53.8163 6.52556 53.3894 7.13431 52.6673L29.8558 25.6237L36.0788 31.4979C37.7983 33.1164 40.429 32.9547 41.9604 31.1369ZM37.1868 30.1783L30.9643 24.304C30.6328 23.9951 30.1999 23.8362 29.7593 23.8625C29.318 23.8884 28.9046 24.1007 28.612 24.4516L5.89048 51.4907C5.58763 51.8546 5.15624 52.0689 4.69891 52.0826C4.24196 52.0903 3.80065 51.9059 3.47148 51.5704C2.85243 50.8471 2.86311 49.7401 3.49589 49.0301L29.4477 18.1419L37.5366 25.7781C38.2239 26.4267 39.2767 26.3624 39.8889 25.6342L45.3375 19.1503C45.9295 18.4015 46.9655 18.2628 47.715 18.8317C48.0727 19.1341 48.2974 19.5792 48.3363 20.0628C48.3756 20.5459 48.2249 21.0255 47.9205 21.3877L40.7166 29.962C39.7969 31.0528 38.2186 31.1494 37.1868 30.1783Z" fill="#0CBD68"/>
<path d="M16.7871 13.2823L22.3872 18.5695C23.0745 19.2176 24.1273 19.1529 24.7395 18.4247L26.9559 15.7866C27.5681 15.058 27.5075 13.9413 26.8201 13.292L19.3533 6.24323C17.635 4.62113 15.0017 4.78286 13.4714 6.60428L6.26662 15.1789C5.65901 15.9043 5.35806 16.8617 5.4332 17.8284C5.50911 18.7955 5.95995 19.6862 6.67818 20.2882C7.25489 20.7766 7.97159 21.0406 8.70965 21.0374C9.71776 21.0309 10.6755 20.5684 11.3419 19.7662L16.7871 13.2823ZM7.71718 18.9095C7.35902 18.6071 7.13436 18.1619 7.09546 17.6784C7.05655 17.1948 7.20684 16.7157 7.51121 16.3534L14.7156 7.77921C15.1554 7.25239 15.7756 6.9346 16.4377 6.89579C16.4877 6.89579 16.5369 6.89053 16.5861 6.89053C17.1987 6.88932 17.7895 7.12907 18.2449 7.5625L25.7125 14.6092L23.496 17.2474L17.8959 11.9602C17.2086 11.3121 16.1558 11.3768 15.5437 12.1049L10.0942 18.5917C9.50111 19.3381 8.46668 19.4763 7.71718 18.9095Z" fill="#0CBD68"/>
<path d="M25.7809 52.8296C26.4023 53.4875 27.2456 53.8558 28.124 53.8534H28.2324C29.1459 53.821 30.0075 53.3945 30.617 52.6724L37.821 44.0981C39.3517 42.2763 39.1991 39.4845 37.4804 37.8625L30.0121 30.8117C29.6814 30.502 29.2485 30.3431 28.8079 30.3702C28.3659 30.3956 27.952 30.6083 27.6591 30.9601L25.4426 33.5974C24.8304 34.3259 24.8915 35.4431 25.5792 36.0916L31.1785 41.3751L25.7298 47.859C24.4978 49.2669 24.52 51.4505 25.7809 52.8296ZM26.9775 49.0319L32.4284 42.5496C33.0402 41.8215 32.9792 40.7052 32.2926 40.0562L26.6891 34.7703L28.9056 32.133L36.372 39.1829C37.4026 40.1561 37.4942 41.8308 36.5761 42.9232L29.3721 51.4978C29.0688 51.8609 28.6371 52.0744 28.1797 52.0877C27.7209 52.11 27.2746 51.9236 26.9531 51.5755C26.3336 50.8518 26.3439 49.7439 26.9775 49.0336V49.0319Z" fill="#0CBD68"/>
<path d="M31.6885 14.7394C33.0566 16.0381 34.8291 16.7545 36.6657 16.7517C36.8129 16.7517 36.9613 16.746 37.1097 16.7375C40.6813 16.5176 43.6092 13.6543 44.1027 9.89821C44.5963 6.14215 42.5179 2.53974 39.1389 1.29365C35.7598 0.0479667 32.0211 1.50551 30.2089 4.77558C28.3971 8.04565 29.0166 12.2169 31.6885 14.7386V14.7394ZM32.3201 4.69108C34.4626 2.14109 38.1494 1.91467 40.5551 4.18569C42.9607 6.45671 43.174 10.3648 41.0315 12.9148C38.8894 15.4648 35.2025 15.6908 32.7969 13.4198C31.6393 12.3309 30.9382 10.7982 30.8489 9.16034C30.7593 7.52247 31.2887 5.91412 32.3201 4.69108Z" fill="#0CBD68"/>
<path d="M0.015625 24.7033C0.015625 25.1913 0.388659 25.5868 0.848659 25.5868H7.51445C7.97483 25.5868 8.34787 25.1913 8.34787 24.7033C8.34787 24.2157 7.97483 23.8203 7.51445 23.8203H0.848659C0.388659 23.8203 0.015625 24.2157 0.015625 24.7033Z" fill="#0CBD68"/>
<path d="M3.34766 28.2346C3.34766 28.7226 3.72069 29.118 4.18069 29.118H10.8465C11.3069 29.118 11.6799 28.7226 11.6799 28.2346C11.6799 27.747 11.3069 27.3516 10.8465 27.3516H4.18069C3.72069 27.3516 3.34766 27.747 3.34766 28.2346Z" fill="#0CBD68"/>
</g>
<defs>
<clipPath id="clip0_1002_32250">
<rect width="50" height="53" fill="white" transform="translate(0.0078125 0.851562)"/>
</clipPath>
</defs>
</svg>
