<svg width="43" height="59" viewBox="0 0 43 59" fill="none" xmlns="http://www.w3.org/2000/svg">
<path d="M25.2231 17.6601C25.4069 16.3701 25.3233 15.056 24.9776 13.7997C24.6319 12.5433 24.0314 11.3716 23.2135 10.3572C22.3956 9.34282 21.3777 8.50756 20.2232 7.90335C19.0687 7.29913 17.8023 6.93888 16.5026 6.845C15.203 6.75112 13.8979 6.92561 12.6686 7.35763C11.4392 7.78964 10.3119 8.46994 9.35671 9.35622C8.4015 10.2425 7.63884 11.3158 7.11614 12.5094C6.59345 13.703 6.32189 14.9914 6.31836 16.2945C6.31836 17.4226 6.37773 18.6694 7.58897 18.6694C7.7611 18.6714 7.93159 18.6359 8.08864 18.5654C8.24569 18.4949 8.38554 18.3911 8.49849 18.2612C8.61145 18.1313 8.69481 17.9784 8.74281 17.8131C8.7908 17.6478 8.80228 17.474 8.77645 17.3038C8.63248 16.2934 8.70725 15.2639 8.99571 14.285C9.28417 13.306 9.77957 12.4004 10.4484 11.6295C11.1172 10.8586 11.9439 10.2404 12.8724 9.81675C13.8008 9.39308 14.8095 9.17382 15.8301 9.17382C16.8507 9.17382 17.8594 9.39308 18.7878 9.81675C19.7163 10.2404 20.543 10.8586 21.2118 11.6295C21.8806 12.4004 22.376 13.306 22.6645 14.285C22.9529 15.2639 23.0277 16.2934 22.8837 17.3038C22.8642 17.6006 22.9568 17.8939 23.1431 18.1257C23.3294 18.3575 23.5959 18.511 23.8899 18.5558C24.1839 18.6005 24.484 18.5334 24.7309 18.3675C24.9778 18.2016 25.1534 17.9492 25.2231 17.6601Z" fill="#0CBD68" stroke="#303948" stroke-width="0.5"/>
<path d="M15.8182 3.22924C17.8116 3.22936 19.7786 3.68576 21.5685 4.56345C23.3583 5.44115 24.9236 6.71687 26.1443 8.29288C27.3649 9.8689 28.2087 11.7034 28.611 13.6559C29.0132 15.6083 28.9632 17.627 28.4649 19.5571C28.3861 19.8626 28.432 20.1869 28.5923 20.4586C28.7527 20.7303 29.0144 20.9271 29.3199 21.0059C29.6253 21.0846 29.9496 21.0388 30.2213 20.8784C30.493 20.7181 30.6898 20.4564 30.7686 20.1509C31.3553 17.8703 31.4125 15.4857 30.9359 13.1795C30.4592 10.8734 29.4612 8.70691 28.0183 6.84583C26.5755 4.98476 24.7259 3.47846 22.6113 2.4422C20.4967 1.40593 18.173 0.867188 15.8182 0.867188C13.4633 0.867188 11.1396 1.40593 9.02499 2.4422C6.91037 3.47846 5.06086 4.98476 3.61799 6.84583C2.17512 8.70691 1.17715 10.8734 0.700457 13.1795C0.223763 15.4857 0.280979 17.8703 0.867728 20.1509C0.946463 20.4564 1.14333 20.7181 1.41502 20.8784C1.54955 20.9578 1.69839 21.0099 1.85306 21.0318C2.00773 21.0537 2.16519 21.0449 2.31646 21.0059C2.46772 20.9669 2.60983 20.8985 2.73466 20.8046C2.85949 20.7107 2.9646 20.5931 3.044 20.4586C3.12339 20.3241 3.17551 20.1752 3.19738 20.0205C3.21924 19.8659 3.21043 19.7084 3.17145 19.5571C2.67308 17.627 2.6231 15.6083 3.02534 13.6559C3.42758 11.7034 4.27136 9.8689 5.49206 8.29288C6.71276 6.71687 8.27798 5.44115 10.0678 4.56345C11.8577 3.68576 13.8247 3.22936 15.8182 3.22924Z" fill="#0CBD68" stroke="#303948" stroke-width="0.5"/>
<path d="M34.818 28.8391C34.727 28.0313 34.4303 27.2603 33.9562 26.5999C33.482 25.9395 32.8463 25.4119 32.1099 25.0676C31.3735 24.7232 30.561 24.5736 29.7503 24.6331C28.9395 24.6925 28.1576 24.9591 27.4793 25.4073C27.2473 24.7427 26.8704 24.138 26.376 23.6369C25.8816 23.1358 25.282 22.7509 24.6206 22.51C23.9592 22.2691 23.2525 22.1782 22.5516 22.2439C21.8508 22.3095 21.1733 22.5302 20.5681 22.8898V17.6768C20.608 16.7317 20.3648 15.7962 19.8697 14.9902C19.3745 14.1842 18.65 13.5444 17.7889 13.1528C16.9279 12.7611 15.9695 12.6355 15.0366 12.792C14.1037 12.9485 13.2387 13.38 12.5526 14.0312C10.5814 15.8955 11.0683 16.798 11.0683 30.5372C7.86206 28.1622 3.94336 29.5872 3.94336 32.9122V42.4121C3.94336 46.5063 5.56978 50.4328 8.46484 53.3279C11.3599 56.2229 15.2864 57.8494 19.3807 57.8494H26.5056C30.5998 57.8494 34.5263 56.2229 37.4214 53.3279C40.3164 50.4328 41.9429 46.5063 41.9429 42.4121V33.1141C41.972 32.2667 41.7737 31.4269 41.3687 30.682C40.9636 29.9372 40.3666 29.3143 39.6395 28.878C38.9125 28.4418 38.0819 28.2081 37.2341 28.2013C36.3862 28.1944 35.552 28.4147 34.818 28.8391ZM39.5679 42.4121C39.5679 44.1274 39.23 45.826 38.5736 47.4108C37.9171 48.9956 36.955 50.4356 35.742 51.6485C34.5291 52.8615 33.0891 53.8236 31.5043 54.4801C29.9195 55.1365 28.2209 55.4744 26.5056 55.4744H19.3807C15.9163 55.4744 12.5939 54.0982 10.1442 51.6485C7.69453 49.1989 6.31833 45.8764 6.31833 42.4121V32.9122C6.31833 31.2497 8.6933 31.4516 9.98765 32.7222C11.282 33.9928 11.0683 35.1209 11.0683 42.4121C11.0683 42.727 11.1934 43.029 11.4161 43.2517C11.6388 43.4744 11.9408 43.5995 12.2557 43.5995C12.5707 43.5995 12.8727 43.4744 13.0954 43.2517C13.3181 43.029 13.4432 42.727 13.4432 42.4121V17.4749C13.4427 17.1517 13.5082 16.8318 13.6357 16.5348C13.7631 16.2378 13.9498 15.9699 14.1844 15.7476C14.4189 15.5253 14.6964 15.3531 14.9998 15.2418C15.3032 15.1304 15.6261 15.0821 15.9488 15.0999C16.5774 15.171 17.1565 15.475 17.572 15.952C17.9874 16.429 18.2091 17.0444 18.1932 17.6768V35.2872C18.1932 35.6021 18.3183 35.9041 18.541 36.1268C18.7637 36.3495 19.0657 36.4746 19.3807 36.4746C19.6956 36.4746 19.9976 36.3495 20.2203 36.1268C20.443 35.9041 20.5681 35.6021 20.5681 35.2872V26.9748C20.5681 26.3449 20.8184 25.7408 21.2638 25.2954C21.7091 24.85 22.3132 24.5998 22.9431 24.5998C23.573 24.5998 24.1771 24.85 24.6225 25.2954C25.0679 25.7408 25.3181 26.3449 25.3181 26.9748V35.2872C25.3181 35.6021 25.4432 35.9041 25.6659 36.1268C25.8886 36.3495 26.1906 36.4746 26.5056 36.4746C26.8205 36.4746 27.1225 36.3495 27.3452 36.1268C27.5679 35.9041 27.693 35.6021 27.693 35.2872V29.3497C27.693 28.7198 27.9433 28.1158 28.3887 27.6704C28.8341 27.225 29.4381 26.9748 30.068 26.9748C30.6979 26.9748 31.302 27.225 31.7474 27.6704C32.1928 28.1158 32.443 28.7198 32.443 29.3497V35.2872C32.443 35.6021 32.5681 35.9041 32.7908 36.1268C33.0135 36.3495 33.3155 36.4746 33.6305 36.4746C33.9454 36.4746 34.2474 36.3495 34.4701 36.1268C34.6928 35.9041 34.818 35.6021 34.818 35.2872C34.818 32.7103 34.6636 32.0334 35.5542 31.1903C35.9028 30.8542 36.3459 30.6327 36.824 30.5555C37.3021 30.4783 37.7924 30.5491 38.2291 30.7584C38.6658 30.9677 39.0281 31.3055 39.2674 31.7266C39.5067 32.1476 39.6115 32.6317 39.5679 33.1141V42.4121Z" fill="#0CBD68" stroke="#303948" stroke-width="0.5"/>
</svg>
